<svg width="48" height="48" viewBox="0 0 48 48" fill="none" xmlns="http://www.w3.org/2000/svg">
<g id="support_agent_FILL0_wght200_GRAD0_opsz48 1">
<path id="Vector" d="M23.5385 42V40.4616H37.2308C37.5898 40.4616 37.8846 40.3462 38.1154 40.1154C38.3462 39.8847 38.4616 39.5898 38.4616 39.2308V24.1077C38.4616 22.1744 38.0705 20.3417 37.2885 18.6096C36.5064 16.8776 35.4538 15.3539 34.1308 14.0385C32.8077 12.7231 31.2718 11.6763 29.5231 10.8981C27.7744 10.1199 25.9333 9.73077 24 9.73077C22.0667 9.73077 20.2256 10.1199 18.4769 10.8981C16.7282 11.6763 15.1923 12.7231 13.8693 14.0385C12.5462 15.3539 11.4936 16.8776 10.7116 18.6096C9.92948 20.3417 9.53845 22.1744 9.53845 24.1077V36.1539H9C8.1564 36.1539 7.4455 35.8648 6.8673 35.2866C6.2891 34.7084 6 33.9975 6 33.1539V29.1539C6 28.5923 6.18333 28.0648 6.55 27.5712C6.91667 27.0776 7.4 26.6474 8 26.2808L8.0346 23.6692C8.10383 21.4923 8.57115 19.459 9.43655 17.5692C10.3019 15.6795 11.4596 14.0385 12.9096 12.6462C14.3596 11.2539 16.0352 10.1571 17.9365 9.35577C19.8378 8.5545 21.859 8.15387 24 8.15387C26.1487 8.15387 28.1737 8.54808 30.075 9.33652C31.9763 10.125 33.65 11.2173 35.0961 12.6135C36.5423 14.0096 37.6981 15.6507 38.5634 17.5365C39.4288 19.4224 39.8962 21.4628 39.9654 23.6577L40 26.2192C40.6 26.5192 41.0833 26.9032 41.45 27.3712C41.8167 27.8391 42 28.3333 42 28.8539V33.4539C42 33.9821 41.8167 34.4782 41.45 34.9423C41.0833 35.4064 40.6 35.7885 40 36.0885V39.2308C40 39.9789 39.7255 40.6274 39.1764 41.1765C38.6274 41.7255 37.9789 42 37.2308 42H23.5385ZM18.7693 28.0769C18.4205 28.0769 18.1154 27.9462 17.8539 27.6846C17.5923 27.4231 17.4615 27.1096 17.4615 26.7443C17.4615 26.4045 17.5923 26.1058 17.8539 25.8481C18.1154 25.5904 18.4289 25.4616 18.7943 25.4616C19.134 25.4616 19.4327 25.5925 19.6904 25.8543C19.9481 26.1162 20.0769 26.4212 20.0769 26.7693C20.0769 27.118 19.946 27.4231 19.6842 27.6846C19.4223 27.9462 19.1173 28.0769 18.7693 28.0769ZM29.2307 28.0769C28.882 28.0769 28.5769 27.9462 28.3154 27.6846C28.0539 27.4231 27.9231 27.1096 27.9231 26.7443C27.9231 26.4045 28.0539 26.1058 28.3154 25.8481C28.5769 25.5904 28.8904 25.4616 29.2558 25.4616C29.5955 25.4616 29.8943 25.5925 30.152 25.8543C30.4096 26.1162 30.5385 26.4212 30.5385 26.7693C30.5385 27.118 30.4075 27.4231 30.1457 27.6846C29.8838 27.9462 29.5788 28.0769 29.2307 28.0769ZM13.4346 24.9385C13.3269 23.2026 13.5699 21.6244 14.1635 20.2039C14.7571 18.7833 15.5647 17.5789 16.5865 16.5904C17.6083 15.602 18.7795 14.8398 20.1 14.3039C21.4205 13.768 22.7538 13.5 24.1 13.5C26.7744 13.5 29.0551 14.3494 30.9423 16.0481C32.8295 17.7468 33.9808 19.8628 34.3961 22.3962C31.6218 22.3628 29.1519 21.6173 26.9866 20.1596C24.8212 18.7019 23.1654 16.8103 22.0193 14.4846C21.5372 16.8769 20.534 18.993 19.0096 20.8327C17.4852 22.6725 15.6269 24.041 13.4346 24.9385Z" fill="#121212"/>
</g>
</svg>
